<?xml version="1.0" encoding="UTF-8"?>
<svg xmlns="http://www.w3.org/2000/svg" xmlns:xlink="http://www.w3.org/1999/xlink" version="1.1">
<symbol id="floppy" viewBox="0 0 32 32">
<g id="surface1">
<path style=" stroke:none;fill-rule:nonzero;fill:currentColor;fill-opacity:1;" d="M 0 0 L 2.460938 0 L 2.460938 2.460938 L 0 2.460938 Z M 0 2.460938 L 2.460938 2.460938 L 2.460938 4.921875 L 0 4.921875 Z M 0 4.921875 L 2.460938 4.921875 L 2.460938 7.382812 L 0 7.382812 Z M 0 7.382812 L 2.460938 7.382812 L 2.460938 9.847656 L 0 9.847656 Z M 0 9.847656 L 2.460938 9.847656 L 2.460938 12.308594 L 0 12.308594 Z M 0 12.308594 L 2.460938 12.308594 L 2.460938 14.769531 L 0 14.769531 Z M 0 14.769531 L 2.460938 14.769531 L 2.460938 17.230469 L 0 17.230469 Z M 0 17.230469 L 2.460938 17.230469 L 2.460938 19.691406 L 0 19.691406 Z M 0 19.691406 L 2.460938 19.691406 L 2.460938 22.152344 L 0 22.152344 Z M 0 22.152344 L 2.460938 22.152344 L 2.460938 24.617188 L 0 24.617188 Z M 0 24.617188 L 2.460938 24.617188 L 2.460938 27.078125 L 0 27.078125 Z M 0 27.078125 L 2.460938 27.078125 L 2.460938 29.539062 L 0 29.539062 Z M 0 29.539062 L 2.460938 29.539062 L 2.460938 32 L 0 32 Z M 27.078125 0 L 27.078125 2.460938 L 24.617188 2.460938 L 24.617188 0 Z M 24.617188 0 L 24.617188 2.460938 L 22.152344 2.460938 L 22.152344 0 Z M 22.152344 0 L 22.152344 2.460938 L 19.691406 2.460938 L 19.691406 0 Z M 19.691406 0 L 19.691406 2.460938 L 17.230469 2.460938 L 17.230469 0 Z M 17.230469 0 L 17.230469 2.460938 L 14.769531 2.460938 L 14.769531 0 Z M 14.769531 0 L 14.769531 2.460938 L 12.308594 2.460938 L 12.308594 0 Z M 12.308594 0 L 12.308594 2.460938 L 9.847656 2.460938 L 9.847656 0 Z M 9.847656 0 L 9.847656 2.460938 L 7.382812 2.460938 L 7.382812 0 Z M 7.382812 0 L 7.382812 2.460938 L 4.921875 2.460938 L 4.921875 0 Z M 4.921875 0 L 4.921875 2.460938 L 2.460938 2.460938 L 2.460938 0 Z M 29.539062 2.460938 L 29.539062 4.921875 L 27.078125 4.921875 L 27.078125 2.460938 Z M 7.382812 4.921875 L 7.382812 7.382812 L 4.921875 7.382812 L 4.921875 4.921875 Z M 7.382812 2.460938 L 7.382812 4.921875 L 4.921875 4.921875 L 4.921875 2.460938 Z M 7.382812 7.382812 L 7.382812 9.847656 L 4.921875 9.847656 L 4.921875 7.382812 Z M 24.617188 4.921875 L 24.617188 7.382812 L 22.152344 7.382812 L 22.152344 4.921875 Z M 24.617188 2.460938 L 24.617188 4.921875 L 22.152344 4.921875 L 22.152344 2.460938 Z M 24.617188 7.382812 L 24.617188 9.847656 L 22.152344 9.847656 L 22.152344 7.382812 Z M 19.691406 4.921875 L 19.691406 7.382812 L 17.230469 7.382812 L 17.230469 4.921875 Z M 19.691406 2.460938 L 19.691406 4.921875 L 17.230469 4.921875 L 17.230469 2.460938 Z M 19.691406 7.382812 L 19.691406 9.847656 L 17.230469 9.847656 L 17.230469 7.382812 Z M 24.617188 9.847656 L 24.617188 12.308594 L 22.152344 12.308594 L 22.152344 9.847656 Z M 22.152344 9.847656 L 22.152344 12.308594 L 19.691406 12.308594 L 19.691406 9.847656 Z M 19.691406 9.847656 L 19.691406 12.308594 L 17.230469 12.308594 L 17.230469 9.847656 Z M 17.230469 9.847656 L 17.230469 12.308594 L 14.769531 12.308594 L 14.769531 9.847656 Z M 14.769531 9.847656 L 14.769531 12.308594 L 12.308594 12.308594 L 12.308594 9.847656 Z M 12.308594 9.847656 L 12.308594 12.308594 L 9.847656 12.308594 L 9.847656 9.847656 Z M 9.847656 9.847656 L 9.847656 12.308594 L 7.382812 12.308594 L 7.382812 9.847656 Z M 7.382812 9.847656 L 7.382812 12.308594 L 4.921875 12.308594 L 4.921875 9.847656 Z M 27.078125 17.230469 L 27.078125 19.691406 L 24.617188 19.691406 L 24.617188 17.230469 Z M 24.617188 17.230469 L 24.617188 19.691406 L 22.152344 19.691406 L 22.152344 17.230469 Z M 22.152344 17.230469 L 22.152344 19.691406 L 19.691406 19.691406 L 19.691406 17.230469 Z M 19.691406 17.230469 L 19.691406 19.691406 L 17.230469 19.691406 L 17.230469 17.230469 Z M 17.230469 17.230469 L 17.230469 19.691406 L 14.769531 19.691406 L 14.769531 17.230469 Z M 14.769531 17.230469 L 14.769531 19.691406 L 12.308594 19.691406 L 12.308594 17.230469 Z M 12.308594 17.230469 L 12.308594 19.691406 L 9.847656 19.691406 L 9.847656 17.230469 Z M 9.847656 17.230469 L 9.847656 19.691406 L 7.382812 19.691406 L 7.382812 17.230469 Z M 7.382812 17.230469 L 7.382812 19.691406 L 4.921875 19.691406 L 4.921875 17.230469 Z M 27.078125 19.691406 L 27.078125 22.152344 L 24.617188 22.152344 L 24.617188 19.691406 Z M 7.382812 19.691406 L 7.382812 22.152344 L 4.921875 22.152344 L 4.921875 19.691406 Z M 27.078125 22.152344 L 27.078125 24.617188 L 24.617188 24.617188 L 24.617188 22.152344 Z M 7.382812 22.152344 L 7.382812 24.617188 L 4.921875 24.617188 L 4.921875 22.152344 Z M 27.078125 24.617188 L 27.078125 27.078125 L 24.617188 27.078125 L 24.617188 24.617188 Z M 7.382812 24.617188 L 7.382812 27.078125 L 4.921875 27.078125 L 4.921875 24.617188 Z M 7.382812 27.078125 L 7.382812 29.539062 L 4.921875 29.539062 L 4.921875 27.078125 Z M 27.078125 27.078125 L 27.078125 29.539062 L 24.617188 29.539062 L 24.617188 27.078125 Z M 29.539062 29.539062 L 29.539062 32 L 27.078125 32 L 27.078125 29.539062 Z M 27.078125 29.539062 L 27.078125 32 L 24.617188 32 L 24.617188 29.539062 Z M 24.617188 29.539062 L 24.617188 32 L 22.152344 32 L 22.152344 29.539062 Z M 22.152344 29.539062 L 22.152344 32 L 19.691406 32 L 19.691406 29.539062 Z M 19.691406 29.539062 L 19.691406 32 L 17.230469 32 L 17.230469 29.539062 Z M 17.230469 29.539062 L 17.230469 32 L 14.769531 32 L 14.769531 29.539062 Z M 14.769531 29.539062 L 14.769531 32 L 12.308594 32 L 12.308594 29.539062 Z M 12.308594 29.539062 L 12.308594 32 L 9.847656 32 L 9.847656 29.539062 Z M 9.847656 29.539062 L 9.847656 32 L 7.382812 32 L 7.382812 29.539062 Z M 7.382812 29.539062 L 7.382812 32 L 4.921875 32 L 4.921875 29.539062 Z M 4.921875 29.539062 L 4.921875 32 L 2.460938 32 L 2.460938 29.539062 Z M 32 32 L 29.539062 32 L 29.539062 29.539062 L 32 29.539062 Z M 32 29.539062 L 29.539062 29.539062 L 29.539062 27.078125 L 32 27.078125 Z M 32 27.078125 L 29.539062 27.078125 L 29.539062 24.617188 L 32 24.617188 Z M 32 24.617188 L 29.539062 24.617188 L 29.539062 22.152344 L 32 22.152344 Z M 32 22.152344 L 29.539062 22.152344 L 29.539062 19.691406 L 32 19.691406 Z M 32 19.691406 L 29.539062 19.691406 L 29.539062 17.230469 L 32 17.230469 Z M 32 17.230469 L 29.539062 17.230469 L 29.539062 14.769531 L 32 14.769531 Z M 32 14.769531 L 29.539062 14.769531 L 29.539062 12.308594 L 32 12.308594 Z M 32 12.308594 L 29.539062 12.308594 L 29.539062 9.847656 L 32 9.847656 Z M 32 9.847656 L 29.539062 9.847656 L 29.539062 7.382812 L 32 7.382812 Z M 32 7.382812 L 29.539062 7.382812 L 29.539062 4.921875 L 32 4.921875 Z M 32 7.382812 "/>
</g>
</symbol>
</svg>
